<svg width="34" height="24" viewBox="0 0 34 24" fill="none" xmlns="http://www.w3.org/2000/svg">
<g id="puzzlepiece.fill">
<g id="Group">
<path id="Vector" d="M0 11.5893C0 14.0292 1.69061 15.3688 3.59254 15.3688C4.39088 15.3688 4.98964 15.1415 5.7058 14.687C6.375 14.2684 6.85635 14.5195 6.85635 15.1056V19.5309C6.85635 21.8871 8.07735 23.0951 10.4136 23.0951H13.5483C14.1118 23.0951 14.3584 22.6166 13.9593 21.935C13.5014 21.2053 13.2783 20.5954 13.2783 19.7821C13.2783 17.8446 14.6049 16.1223 17 16.1223C19.3951 16.1223 20.71 17.8446 20.71 19.7821C20.71 20.5954 20.4869 21.2053 20.0407 21.935C19.6416 22.6166 19.8763 23.0951 20.4517 23.0951H23.5864C25.9227 23.0951 27.1437 21.8871 27.1437 19.5309V15.1056C27.1437 14.5195 27.625 14.2684 28.2825 14.687C29.0103 15.1415 29.6091 15.3688 30.3957 15.3688C32.3094 15.3688 34 14.0292 34 11.5893C34 9.13743 32.3094 7.79788 30.3957 7.79788C29.6091 7.79788 29.0103 8.02513 28.2825 8.47962C27.625 8.89823 27.1437 8.64706 27.1437 8.061V3.6357C27.1437 1.29148 25.9227 0.0715332 23.5864 0.0715332H20.4517C19.8763 0.0715332 19.6416 0.561905 20.0407 1.24364C20.4869 1.97322 20.71 2.5832 20.71 3.39649C20.71 5.33406 19.3951 7.05634 17 7.05634C14.6049 7.05634 13.2783 5.33406 13.2783 3.39649C13.2783 2.5832 13.5014 1.97322 13.9593 1.24364C14.3584 0.561905 14.1118 0.0715332 13.5483 0.0715332H10.4136C8.07735 0.0715332 6.85635 1.29148 6.85635 3.6357V8.061C6.85635 8.64706 6.375 8.89823 5.7058 8.47962C4.98964 8.02513 4.39088 7.79788 3.59254 7.79788C1.69061 7.79788 0 9.13743 0 11.5893Z" fill="#FF9500"/>
</g>
</g>
</svg>
