<svg width="22" height="36" viewBox="0 0 22 36" fill="none" xmlns="http://www.w3.org/2000/svg">
<g id="backpack.fill">
<g id="Group">
<path id="Vector" d="M6.93991 33.8251H15.0579C19.6816 33.8251 21.9669 31.4514 21.927 26.704C21.8738 21.2823 21.8473 17.3441 21.7144 14.3905C21.3292 5.70495 18.9243 3.15593 11.0056 3.15593C3.08685 3.15593 0.668714 5.70495 0.283408 14.3905C0.150544 17.3441 0.123971 21.2823 0.070825 26.704C0.0309657 31.4514 2.31623 33.8251 6.93991 33.8251ZM6.5546 28.4708C5.41197 28.4708 4.68122 27.7155 4.68122 26.5827V19.6234C4.68122 18.477 5.41197 17.7217 6.5546 17.7217H15.4565C16.5859 17.7217 17.3166 18.477 17.3166 19.6234V26.5827C17.3166 27.7155 16.5859 28.4708 15.4565 28.4708H6.5546ZM4.68122 22.9143H17.3166V21.3092H4.68122V22.9143ZM11.0056 0C8.45456 0 6.66089 1.7533 6.66089 4.14048H8.53428C8.53428 2.83225 9.54405 1.90165 11.0056 1.90165C12.4537 1.90165 13.4769 2.83225 13.4769 4.14048H15.3502C15.3502 1.7533 13.5433 0 11.0056 0Z" fill="#FF9500"/>
</g>
</g>
</svg>
