<svg width="25" height="30" viewBox="0 0 25 30" fill="none" xmlns="http://www.w3.org/2000/svg">
<g id="bolt.shield.fill">
<g id="Group">
<path id="Vector" d="M12.4955 29.1588C12.7232 29.1588 13.079 29.0733 13.4347 28.8884C21.5315 24.6479 24.1356 22.5276 24.1356 17.4191V6.68972C24.1356 5.22404 23.5094 4.75446 22.3142 4.2564C20.6493 3.57337 15.3273 1.63811 13.6766 1.06891C13.2924 0.94084 12.894 0.86969 12.4955 0.86969C12.0971 0.86969 11.6987 0.95507 11.3287 1.06891C9.66379 1.60965 4.34179 3.5876 2.6769 4.2564C1.49582 4.74022 0.855469 5.22404 0.855469 6.68972V17.4191C0.855469 22.5276 3.60184 24.406 11.5564 28.8884C11.9263 29.0876 12.2679 29.1588 12.4955 29.1588ZM6.07784 15.4838C6.07784 15.313 6.16322 15.0996 6.31975 14.9146L14.3597 4.8256C14.9715 4.05719 15.9962 4.56947 15.6262 5.52287L12.9794 12.6378H17.9456C18.3298 12.6378 18.6144 12.9081 18.6144 13.2925C18.6144 13.4632 18.529 13.6767 18.3725 13.8616L10.3326 23.9506C9.7207 24.719 8.71038 24.2067 9.06613 23.2676L11.7271 16.1384H6.74665C6.37668 16.1384 6.07784 15.868 6.07784 15.4838Z" fill="#FF9500"/>
</g>
</g>
</svg>
