<svg width="34" height="29" viewBox="0 0 34 29" fill="none" xmlns="http://www.w3.org/2000/svg">
<g id="crown.fill">
<g id="Group">
<path id="Vector" d="M5.67329 22.0954L6.07096 23.7043C6.57466 25.796 7.67486 26.8686 9.86199 26.8686H24.138C26.3384 26.8686 27.4253 25.8228 27.9423 23.7043L28.34 22.0954H5.67329ZM5.23587 20.2585H28.7906L31.2826 9.93451L30.1957 9.30434L24.085 13.8094C23.6343 14.1312 23.3294 14.0105 23.0775 13.6485L17.3247 4.85295L16.6885 4.82613L10.8826 13.6887C10.6573 14.0373 10.3922 14.1446 9.94151 13.8228L3.9501 9.3982L2.67759 9.73339L5.23587 20.2585ZM3.16803 12.616C4.91774 12.616 6.3228 11.1814 6.3228 9.3982C6.3228 7.65519 4.91774 6.20713 3.16803 6.20713C1.41833 6.20713 0 7.64178 0 9.3982C0 11.1814 1.43157 12.616 3.16803 12.616ZM17.0067 7.03842C18.7431 7.03842 20.1614 5.60379 20.1614 3.83395C20.1614 2.09092 18.7431 0.642883 17.0067 0.642883C15.2437 0.642883 13.8386 2.07753 13.8386 3.83395C13.8386 5.60379 15.2569 7.03842 17.0067 7.03842ZM30.8319 12.616C32.5685 12.616 34 11.1814 34 9.3982C34 7.64178 32.5817 6.20713 30.8319 6.20713C29.0956 6.20713 27.6772 7.65519 27.6772 9.3982C27.6772 11.1814 29.0956 12.616 30.8319 12.616Z" fill="#FF9500"/>
</g>
</g>
</svg>
