<svg width="28" height="33" viewBox="0 0 28 33" fill="none" xmlns="http://www.w3.org/2000/svg">
<g id="medal.fill">
<g id="Group">
<path id="Vector" d="M14.1814 32.317C19.1903 32.317 23.2316 28.2757 23.2316 23.281C23.2316 18.2721 19.1903 14.2308 14.1814 14.2308C9.18667 14.2308 5.14537 18.2721 5.14537 23.281C5.14537 28.2757 9.18667 32.317 14.1814 32.317ZM11.6057 27.9341C11.065 28.3325 10.4958 27.9199 10.7093 27.2938L11.7338 24.2343L9.11551 22.3703C8.61747 22.0003 8.77399 21.303 9.45703 21.303L12.673 21.3315L13.6549 18.2579C13.854 17.6318 14.5371 17.6318 14.7363 18.2579L15.7182 21.3315L18.9341 21.303C19.6171 21.303 19.7595 22.0145 19.2757 22.3561L16.6573 24.2343L17.6819 27.2938C17.8954 27.9199 17.3261 28.3325 16.7854 27.9341L14.1956 26.0415L11.6057 27.9341ZM5.51535 16.5076C6.90988 14.743 8.83092 13.4054 11.0365 12.7508L4.5904 1.1677L0.847935 6.8739C0.591797 7.24387 0.577567 7.65654 0.805246 8.02651L5.51535 16.5076ZM10.9939 7.89844H17.3831L21.7232 0.214294H6.65374L10.9939 7.89844ZM17.3404 12.7508C19.5603 13.4054 21.4671 14.743 22.8616 16.5076L27.5859 8.02651C27.7994 7.65654 27.7852 7.24387 27.5291 6.8739L23.7865 1.1677L17.3404 12.7508Z" fill="#FF9500"/>
</g>
</g>
</svg>
