<svg width="24" height="25" viewBox="0 0 24 25" fill="none" xmlns="http://www.w3.org/2000/svg">
<g id="Icon" clip-path="url(#clip0_41_286)">
<path id="Vector" d="M22.2234 0.125H1.77187C0.792187 0.125 0 0.898438 0 1.85469V22.3906C0 23.3469 0.792187 24.125 1.77187 24.125H22.2234C23.2031 24.125 24 23.3469 24 22.3953V1.85469C24 0.898438 23.2031 0.125 22.2234 0.125ZM7.12031 20.5766H3.55781V9.12031H7.12031V20.5766ZM5.33906 7.55938C4.19531 7.55938 3.27188 6.63594 3.27188 5.49687C3.27188 4.35781 4.19531 3.43437 5.33906 3.43437C6.47813 3.43437 7.40156 4.35781 7.40156 5.49687C7.40156 6.63125 6.47813 7.55938 5.33906 7.55938ZM20.4516 20.5766H16.8937V15.0078C16.8937 13.6812 16.8703 11.9703 15.0422 11.9703C13.1906 11.9703 12.9094 13.4187 12.9094 14.9141V20.5766H9.35625V9.12031H12.7687V10.6859H12.8156C13.2891 9.78594 14.4516 8.83438 16.1813 8.83438C19.7859 8.83438 20.4516 11.2063 20.4516 14.2906V20.5766Z" fill="#333333"/>
</g>
<defs>
<clipPath id="clip0_41_286">
<rect width="24" height="24" fill="white" transform="translate(0 0.125)"/>
</clipPath>
</defs>
</svg>
