<svg width="24" height="25" viewBox="0 0 24 25" fill="none" xmlns="http://www.w3.org/2000/svg">
<g id="Icon">
<path id="Vector (Stroke)" fill-rule="evenodd" clip-rule="evenodd" d="M1.5 5.125C1.5 3.46815 2.84315 2.125 4.5 2.125H5.87163C6.732 2.125 7.48197 2.71056 7.69064 3.54525L8.79644 7.96843C8.97941 8.7003 8.70594 9.47055 8.10242 9.92318L6.8088 10.8934C6.67447 10.9941 6.64527 11.1417 6.683 11.2447C7.81851 14.3445 10.2805 16.8065 13.3803 17.942C13.4833 17.9797 13.6309 17.9505 13.7316 17.8162L14.7018 16.5226C15.1545 15.9191 15.9247 15.6456 16.6566 15.8286L21.0798 16.9344C21.9144 17.143 22.5 17.893 22.5 18.7534V20.125C22.5 21.7819 21.1569 23.125 19.5 23.125H17.25C8.55151 23.125 1.5 16.0735 1.5 7.375V5.125Z" fill="#262626"/>
</g>
</svg>
