<svg width="24" height="25" viewBox="0 0 24 25" fill="none" xmlns="http://www.w3.org/2000/svg">
<g id="Icon">
<path id="Subtract" fill-rule="evenodd" clip-rule="evenodd" d="M11.5397 22.726C11.57 22.7435 11.5937 22.7571 11.6105 22.7665L11.6384 22.7821C11.8613 22.9044 12.1378 22.9035 12.3608 22.7825L12.3895 22.7665C12.4063 22.7571 12.43 22.7435 12.4603 22.726C12.5207 22.691 12.607 22.64 12.7155 22.5732C12.9325 22.4396 13.2388 22.2426 13.6046 21.9841C14.3351 21.4681 15.3097 20.7024 16.2865 19.7023C18.2307 17.7118 20.25 14.7212 20.25 10.875C20.25 6.31865 16.5563 2.625 12 2.625C7.44365 2.625 3.75 6.31865 3.75 10.875C3.75 14.7212 5.76932 17.7118 7.71346 19.7023C8.69025 20.7024 9.66491 21.4681 10.3954 21.9841C10.7612 22.2426 11.0675 22.4396 11.2845 22.5732C11.393 22.64 11.4793 22.691 11.5397 22.726ZM12 13.875C13.6569 13.875 15 12.5319 15 10.875C15 9.21815 13.6569 7.875 12 7.875C10.3431 7.875 9 9.21815 9 10.875C9 12.5319 10.3431 13.875 12 13.875Z" fill="#262626"/>
</g>
</svg>
