<svg width="24" height="25" viewBox="0 0 24 25" fill="none" xmlns="http://www.w3.org/2000/svg">
<g id="Icon" clip-path="url(#clip0_41_280)">
<path id="Vector" d="M24 12.125C24 5.49758 18.6274 0.125 12 0.125C5.37258 0.125 0 5.49758 0 12.125C0 18.1145 4.3882 23.079 10.125 23.9792V15.5937H7.07812V12.125H10.125V9.48125C10.125 6.47375 11.9166 4.8125 14.6576 4.8125C15.9701 4.8125 17.3438 5.04687 17.3438 5.04687V8H15.8306C14.34 8 13.875 8.92508 13.875 9.875V12.125H17.2031L16.6711 15.5937H13.875V23.9792C19.6118 23.079 24 18.1145 24 12.125Z" fill="#333333"/>
</g>
<defs>
<clipPath id="clip0_41_280">
<rect width="24" height="24" fill="white" transform="translate(0 0.125)"/>
</clipPath>
</defs>
</svg>
