<svg width="24" height="25" viewBox="0 0 24 25" fill="none" xmlns="http://www.w3.org/2000/svg">
<g id="Icon" clip-path="url(#clip0_41_283)">
<path id="Vector" d="M7.55016 21.875C16.6045 21.875 21.5583 14.3717 21.5583 7.86686C21.5583 7.65592 21.5536 7.4403 21.5442 7.22936C22.5079 6.53246 23.3395 5.66925 24 4.6803C23.1025 5.0796 22.1496 5.34038 21.1739 5.45374C22.2013 4.83791 22.9705 3.87047 23.3391 2.73077C22.3726 3.30356 21.3156 3.70761 20.2134 3.92561C19.4708 3.13656 18.489 2.61412 17.4197 2.43905C16.3504 2.26399 15.2532 2.44605 14.2977 2.9571C13.3423 3.46814 12.5818 4.27971 12.1338 5.26631C11.6859 6.25292 11.5754 7.35962 11.8195 8.4153C9.86249 8.31709 7.94794 7.8087 6.19998 6.9231C4.45203 6.03749 2.90969 4.79444 1.67297 3.27452C1.0444 4.35824 0.852057 5.64065 1.13503 6.86109C1.418 8.08154 2.15506 9.14845 3.19641 9.84499C2.41463 9.82017 1.64998 9.60968 0.965625 9.23092V9.29186C0.964925 10.4291 1.3581 11.5316 2.07831 12.4118C2.79852 13.292 3.80132 13.8956 4.91625 14.12C4.19206 14.3181 3.43198 14.347 2.69484 14.2044C3.00945 15.1824 3.62157 16.0379 4.44577 16.6513C5.26997 17.2648 6.26512 17.6056 7.29234 17.6262C5.54842 18.9961 3.39417 19.7391 1.17656 19.7356C0.783287 19.735 0.390399 19.7109 0 19.6634C2.25286 21.1087 4.87353 21.8764 7.55016 21.875Z" fill="#333333"/>
</g>
<defs>
<clipPath id="clip0_41_283">
<rect width="24" height="24" fill="white" transform="translate(0 0.125)"/>
</clipPath>
</defs>
</svg>
